<svg width="20" height="20" viewBox="0 0 20 20" fill="none" xmlns="http://www.w3.org/2000/svg">
<path d="M16.6743 20H3.32835C1.6601 20 1.22087 19.7559 0.732602 19.2676C0.244334 18.7793 -0.00814574 18.3333 0.000200554 16.6667V3.33333C0.000200554 1.66667 0.244334 1.2207 0.732602 0.732422C1.22087 0.244141 1.6601 0 3.32835 0H16.6743C17.3644 0 18.3538 0.0103678 19.1767 0.833333C19.9996 1.6563 19.9996 2.64323 19.9996 3.33333V16.6667C20.0108 18.3333 19.7555 18.7793 19.2672 19.2676C18.779 19.7559 18.3426 20 16.6743 20ZM6.25003 7.5V5.625C6.25003 5.27344 6.14261 4.92839 5.92777 4.58984C5.71293 4.2513 5.47531 4.01042 5.2149 3.86719C4.95449 3.72396 4.75267 3.71745 4.60945 3.84766L3.18371 5.29297C2.79309 5.68359 2.57174 6.20768 2.51966 6.86523C2.46758 7.52279 2.56849 8.23893 2.82239 9.01367C3.07629 9.78841 3.48318 10.6087 4.04306 11.4746C4.60294 12.3405 5.27349 13.1641 6.05472 13.9453C6.83595 14.7266 7.65949 15.3971 8.52536 15.957C9.39122 16.5169 10.2115 16.9271 10.9862 17.1875C11.7609 17.4479 12.4771 17.5521 13.1346 17.5C13.7921 17.4479 14.3162 17.2266 14.7068 16.8359L16.1521 15.3906C16.2823 15.2604 16.2758 15.0618 16.1326 14.7949C15.9893 14.528 15.7485 14.2871 15.4099 14.0723C15.0714 13.8574 14.7264 13.75 14.3748 13.75H12.4999L11.2304 14.5312C10.6444 14.375 9.9218 13.9518 9.06245 13.2617C8.2031 12.5716 7.42838 11.7969 6.7383 10.9375C6.04821 10.0781 5.62504 9.35547 5.4688 8.76953L6.25003 7.5ZM13.7108 10.625L14.9803 10.8398C14.8761 9.27734 14.2706 7.94271 13.1639 6.83594C12.0572 5.72917 10.7291 5.1237 9.17963 5.01953L9.37494 6.28906C10.5077 6.43229 11.4777 6.90755 12.285 7.71484C13.0923 8.52213 13.5675 9.49219 13.7108 10.625ZM9.60931 7.59766L9.84368 9.00391C10.3515 9.2513 10.7356 9.63542 10.996 10.1562L12.4022 10.3906C12.2329 9.70052 11.8977 9.10482 11.3964 8.60352C10.8951 8.10221 10.2994 7.76693 9.60931 7.59766ZM8.74996 2.5L8.9648 3.76953C10.2668 3.79557 11.468 4.13737 12.5682 4.79492C13.6684 5.45247 14.5473 6.33138 15.2049 7.43164C15.8624 8.5319 16.2042 9.73307 16.2302 11.0352L17.4997 11.25C17.4997 10.0651 17.2686 8.93229 16.8064 7.85156C16.3442 6.77083 15.7224 5.83984 14.9412 5.05859C14.16 4.27734 13.229 3.6556 12.1483 3.19336C11.0676 2.73112 9.93482 2.5 8.74996 2.5Z" fill="#43FFD2"/>
</svg>
