<svg width="20" height="20" viewBox="0 0 20 20" fill="none" xmlns="http://www.w3.org/2000/svg">
<path d="M19.99 4.54723C19.9817 4.11818 19.9473 3.69004 19.887 3.26516C19.8152 2.88725 19.6931 2.52064 19.524 2.17511C19.1539 1.44437 18.5605 0.850617 17.83 0.480024C17.4867 0.311728 17.1225 0.189982 16.747 0.118006C16.3189 0.0564854 15.8874 0.0214171 15.455 0.0130007C15.272 0.00600031 15.035 0.00300017 14.925 0.00300017L5.077 0C4.967 0 4.73 0.00300014 4.547 0.0100005C4.11797 0.0182675 3.68985 0.0526662 3.265 0.113006C2.8871 0.184849 2.52052 0.306939 2.175 0.476024C1.44434 0.846243 0.850632 1.43963 0.48 2.17011C0.311757 2.51344 0.190018 2.87766 0.118 3.25316C0.0562033 3.68127 0.0208031 4.11277 0.0120001 4.54523C0.00600008 4.72824 0.00200009 4.96525 0.00200009 5.07525L0 14.9237C0 15.0338 0.00299999 15.2708 0.00999999 15.4538C0.0182666 15.8828 0.0526636 16.311 0.113 16.7358C0.184851 17.1138 0.306934 17.4804 0.476 17.8259C0.846201 18.5566 1.43956 19.1503 2.17 19.521C2.51332 19.6892 2.87753 19.8109 3.253 19.883C3.6811 19.9445 4.11258 19.9796 4.545 19.988C4.728 19.995 4.965 19.998 5.075 19.998L14.923 20C15.033 20 15.27 19.997 15.453 19.99C15.882 19.9817 16.3102 19.9473 16.735 19.887C17.1129 19.8151 17.4795 19.693 17.825 19.524C18.556 19.1539 19.1501 18.5605 19.521 17.8299C19.6893 17.4866 19.811 17.1223 19.883 16.7468C19.9448 16.3187 19.9802 15.8872 19.989 15.4548C19.995 15.2718 19.999 15.0348 19.999 14.9247L20 5.07725C20 4.96725 19.997 4.73024 19.99 4.54723ZM10.217 16.9578H10.214C9.02366 16.9576 7.85235 16.6592 6.807 16.0898L3.027 17.0809L4.039 13.3877C3.25545 12.0279 2.94237 10.4476 3.1483 8.89183C3.35423 7.33603 4.06765 5.89162 5.17797 4.78257C6.28829 3.67352 7.73347 2.96177 9.28944 2.75768C10.8454 2.5536 12.4252 2.86857 13.784 3.65378C15.1427 4.43898 16.2045 5.65054 16.8046 7.10062C17.4048 8.55069 17.5098 10.1583 17.1034 11.6741C16.697 13.1899 15.8018 14.5293 14.5568 15.4846C13.3117 16.4399 11.7863 16.9578 10.217 16.9578Z" fill="#43FFD2"/>
<path d="M10.2197 3.89944C9.16083 3.89913 8.12117 4.18253 7.20888 4.72017C6.29659 5.2578 5.54498 6.03004 5.03223 6.95658C4.51948 7.88312 4.2643 8.93011 4.29323 9.98869C4.32216 11.0473 4.63415 12.0788 5.19675 12.9759L5.33775 13.1999L4.73875 15.386L6.98175 14.798L7.19775 14.926C8.11084 15.4668 9.15254 15.7521 10.2137 15.752H10.2167C11.7886 15.7523 13.2961 15.1281 14.4077 14.0168C15.5193 12.9055 16.144 11.3981 16.1442 9.82624C16.1445 8.25435 15.5204 6.74674 14.4091 5.63506C13.2979 4.52339 11.7906 3.8987 10.2187 3.89844L10.2197 3.89944ZM13.7037 12.3699C13.5727 12.5863 13.3982 12.7734 13.1913 12.9191C12.9845 13.0649 12.7497 13.1663 12.5017 13.2169C12.1274 13.2811 11.7432 13.2571 11.3797 13.1469C11.035 13.0395 10.6962 12.914 10.3647 12.7709C9.13448 12.1534 8.08585 11.2268 7.32175 10.0817C6.90492 9.55169 6.65191 8.91147 6.59375 8.23966C6.58894 7.96236 6.64195 7.6871 6.74938 7.43141C6.85682 7.17572 7.01633 6.94522 7.21775 6.75458C7.27727 6.68667 7.3502 6.6318 7.43194 6.59343C7.51368 6.55505 7.60248 6.53399 7.69275 6.53157C7.81075 6.53157 7.92975 6.53157 8.03375 6.53757C8.14375 6.54257 8.28975 6.49557 8.43375 6.84359C8.58375 7.1996 8.93975 8.07665 8.98375 8.16565C9.01199 8.21231 9.02815 8.26528 9.03077 8.31976C9.03339 8.37424 9.02238 8.42851 8.99875 8.47767C8.95389 8.58466 8.89394 8.68468 8.82075 8.77468C8.73075 8.87869 8.63375 9.00669 8.55375 9.0867C8.46375 9.1757 8.37175 9.27171 8.47475 9.44972C8.74227 9.90779 9.07624 10.3237 9.46575 10.6838C9.88838 11.0595 10.3733 11.3587 10.8987 11.5678C11.0767 11.6578 11.1807 11.6418 11.2847 11.5228C11.3887 11.4038 11.7297 11.0028 11.8487 10.8248C11.9677 10.6468 12.0857 10.6768 12.2487 10.7358C12.4117 10.7948 13.2887 11.2258 13.4667 11.3158C13.6447 11.4058 13.7637 11.4488 13.8077 11.5228C13.8565 11.8093 13.8204 12.1037 13.7037 12.3699Z" fill="#43FFD2"/>
</svg>
